<svg xmlns="http://www.w3.org/2000/svg" xmlns:xlink="http://www.w3.org/1999/xlink" id="Layer_1" x="0px" y="0px" viewBox="0 0 168 115" style="enable-background:new 0 0 168 115;" xml:space="preserve"><style type="text/css">	.st0{fill:#003399;}	.st1{fill:#FFCC00;}</style><rect x="4.9" y="4.8" class="st0" width="158.1" height="105.5"></rect><g>	<polygon class="st1" points="84,17.1 82.7,21.1 78.4,21.1 81.8,23.6 80.6,27.6 84,25.2 87.4,27.6 86.2,23.6 89.6,21.1 85.3,21.1    "></polygon>	<polygon class="st1" points="85.3,91.4 84,87.3 82.7,91.4 78.4,91.4 81.8,93.8 80.6,97.9 84,95.4 87.4,97.9 86.2,93.8 89.6,91.4    "></polygon>	<polygon class="st1" points="48.9,60.3 52.3,62.8 50.9,58.7 54.5,56.2 50.2,56.2 48.9,52.2 47.6,56.2 43.3,56.2 46.7,58.7   45.4,62.8  "></polygon>	<polygon class="st1" points="66.4,21.8 65.1,25.8 60.9,25.8 64.3,28.3 63.1,32.3 66.4,29.9 69.8,32.3 68.6,28.3 72,25.8 67.8,25.8    "></polygon>	<polygon class="st1" points="53.6,34.6 52.3,38.6 48,38.6 51.4,41.2 50.1,45.1 53.6,42.7 57,45.1 55.7,41.2 59.2,38.6 54.9,38.6    "></polygon>	<polygon class="st1" points="54.9,73.8 53.6,69.7 52.3,73.8 48,73.8 51.4,76.3 50.1,80.4 53.6,77.8 57,80.4 55.7,76.3 59.2,73.8    "></polygon>	<polygon class="st1" points="67.8,86.7 66.4,82.6 65.1,86.7 60.9,86.7 64.3,89.1 63.1,93.2 66.4,90.7 69.8,93.2 68.6,89.1 72,86.7    "></polygon>	<polygon class="st1" points="124.7,56.2 120.4,56.2 119.1,52.2 117.8,56.2 113.5,56.2 117.1,58.7 115.7,62.8 119.1,60.3   122.6,62.8 121.3,58.7  "></polygon>	<polygon class="st1" points="101.6,21.8 100.2,25.8 96,25.8 99.5,28.3 98.2,32.3 101.6,29.9 105.1,32.3 103.7,28.3 107.1,25.8   102.9,25.8  "></polygon>	<polygon class="st1" points="112.3,41.2 111,45.1 114.4,42.7 117.9,45.1 116.6,41.2 120,38.6 115.7,38.6 114.4,34.6 113.1,38.6   108.8,38.6  "></polygon>	<polygon class="st1" points="115.7,73.8 114.4,69.7 113.1,73.8 108.8,73.8 112.3,76.3 111,80.4 114.4,77.8 117.9,80.4 116.6,76.3   120,73.8  "></polygon>	<polygon class="st1" points="102.9,86.7 101.6,82.6 100.2,86.7 96,86.7 99.5,89.1 98.2,93.2 101.6,90.7 105.1,93.2 103.7,89.1   107.1,86.7  "></polygon></g></svg>